Coordinates
version=1
nRows=43
nColumns=12
inDegrees=yes

Units are S.I. units (second, meters, Newtons, ...)
Angles are in degrees

endheader
time	SC_y	SC_z	SC_x	AC_y	AC_z	AC_x	GH_y	GH_z	GH_yy	EL_x	PS_y
       0.0              -55.88          8.038          41.56          45.06         -15.45          5.676         -16.82          32.27          63.18          83.06          92.89
   0.04992              -55.88          8.039          41.56          45.06         -15.45          5.673          -16.8          32.26          63.15          83.05          92.88
   0.09984              -55.88          8.039          41.55          45.06         -15.45           5.67         -16.78          32.26          63.12          83.04          92.88
    0.1498              -55.87           8.04          41.55          45.06         -15.45          5.666         -16.75          32.26          63.09          83.04          92.88
    0.1997              -55.87          8.041          41.54          45.06         -15.44          5.663         -16.72          32.25          63.06          83.03          92.87
    0.2496              -55.87          8.042          41.53          45.06         -15.44          5.659         -16.69          32.25          63.02          83.02          92.87
    0.2995              -55.86          8.043          41.52          45.06         -15.44          5.655         -16.66          32.25          62.98          83.01          92.86
    0.3494              -55.86          8.044          41.52          45.05         -15.44           5.65         -16.62          32.24          62.94           83.0          92.86
    0.3994              -55.86          8.045          41.51          45.05         -15.44          5.646         -16.59          32.24          62.89          82.98          92.85
    0.4493              -55.85          8.047           41.5          45.05         -15.44          5.641         -16.55          32.24          62.84          82.97          92.85
    0.4992              -55.85          8.048          41.49          45.05         -15.44          5.635         -16.51          32.23          62.79          82.96          92.84
    0.5491              -55.84          8.049          41.48          45.05         -15.43           5.63         -16.46          32.23          62.73          82.94          92.84
     0.599              -55.84          8.051          41.46          45.04         -15.43          5.623         -16.41          32.22          62.67          82.93          92.83
     0.649              -55.83          8.053          41.45          45.04         -15.43          5.616         -16.36          32.21          62.61          82.91          92.82
    0.6989              -55.82          8.054          41.44          45.04         -15.43          5.609          -16.3          32.21          62.54          82.89          92.81
    0.7488              -55.82          8.056          41.42          45.04         -15.42          5.601         -16.24           32.2          62.46          82.87           92.8
    0.7987              -55.81          8.059          41.41          45.03         -15.42          5.593         -16.17          32.19          62.38          82.85          92.79
    0.8486               -55.8          8.061          41.39          45.03         -15.42          5.583          -16.1          32.19          62.28          82.82          92.78
    0.8986              -55.79          8.063          41.37          45.02         -15.42          5.573         -16.02          32.18          62.18           82.8          92.77
    0.9485              -55.78          8.066          41.35          45.02         -15.41          5.562         -15.93          32.17          62.08          82.77          92.76
    0.9984              -55.77          8.069          41.32          45.02         -15.41          5.549         -15.83          32.16          61.96          82.74          92.75
     1.048              -55.76          8.073           41.3          45.01          -15.4          5.536         -15.73          32.15          61.82           82.7          92.73
     1.098              -55.75          8.077          41.27          45.01          -15.4          5.521         -15.61          32.13          61.68          82.66          92.72
     1.148              -55.73          8.081          41.24           45.0         -15.39          5.504         -15.48          32.12          61.52          82.62           92.7
     1.198              -55.72          8.085           41.2          44.99         -15.39          5.486         -15.33           32.1          61.34          82.57          92.68
     1.248               -55.7           8.09          41.16          44.98         -15.38          5.465         -15.17          32.09          61.14          82.52          92.65
     1.298              -55.68          8.096          41.12          44.98         -15.37          5.442         -14.99          32.07          60.91          82.46          92.63
     1.348              -55.65          8.103          41.07          44.97         -15.36          5.416         -14.79          32.04          60.66          82.39           92.6
     1.398              -55.63           8.11          41.01          44.96         -15.35          5.386         -14.56          32.02          60.38          82.32          92.57
     1.448               -55.6          8.118          40.95          44.94         -15.34          5.353         -14.29          31.99          60.05          82.23          92.53
     1.498              -55.57          8.128          40.88          44.93         -15.33          5.315          -14.0          31.96          59.68          82.14          92.49
     1.548              -55.53          8.139          40.79          44.91         -15.32          5.271         -13.65          31.92          59.26          82.02          92.44
     1.597              -55.48          8.151           40.7          44.89          -15.3          5.221         -13.26          31.88          58.77          81.89          92.39
     1.647              -55.43          8.166          40.59          44.87         -15.28          5.162          -12.8          31.83           58.2          81.74          92.32
     1.697              -55.37          8.183          40.46          44.85         -15.26          5.094         -12.26          31.77          57.54          81.57          92.25
     1.747               -55.3          8.203           40.3          44.82         -15.23          5.013         -11.63           31.7          56.75          81.36          92.16
     1.797              -55.22          8.227          40.12          44.78          -15.2          4.917         -10.88          31.62          55.82          81.12          92.05
     1.847              -55.11          8.256           39.9          44.74         -15.16          4.802         -9.973          31.52           54.7          80.82          91.92
     1.897              -54.99          8.291          39.63          44.69         -15.12          4.662         -8.881           31.4          53.35          80.46          91.77
     1.947              -54.84          8.333          39.31          44.62         -15.06          4.492         -7.547          31.25           51.7          80.03          91.58
     1.997              -54.66          8.385          38.91          44.54         -14.99          4.282         -5.901          31.07          49.66          79.49          91.35
     2.047              -54.43          8.451          38.41          44.45         -14.91           4.02         -3.848          30.85          47.12          78.82          91.06
     2.097              -54.14          8.533          37.78          44.32          -14.8           3.69         -1.262          30.57          43.92          77.97           90.7
